<svg xmlns="http://www.w3.org/2000/svg" width="24" height="24" viewBox="0 0 24 24"><path d="M10.178 13.822a4.015 4.015 0 0 0 5.657 0l3-3a4.015 4.015 0 0 0 0-5.657 4.015 4.015 0 0 0-5.657 0l-2.5 2.5 2.414.414 1.5-1.5c.79-.789 2.039-.789 2.828 0s.79 2.04 0 2.829l-3 3c-.789.79-2.038.79-2.828 0z"/><path d="M13.822 10.178a4.015 4.015 0 0 0-5.657 0l-3 3a4.015 4.015 0 0 0 0 5.657 4.015 4.015 0 0 0 5.657 0l2.5-2.5-2.414-.414-1.5 1.5c-.79.789-2.039.789-2.828 0s-.79-2.04 0-2.829l3-3c.789-.79 2.038-.79 2.828 0z"/></svg>